<svg width="811.7px" height="124.4px" xmlns="http://www.w3.org/2000/svg" viewBox="-155.840625 12.800000000000004 811.68125 124.39999999999999" style="background: rgba(0, 0, 0, 0)" preserveAspectRatio="xMidYMid"><defs><linearGradient id="editing-gradient-gradient" x1="0" x2="1" y1="0.5" y2="0.5" gradientUnits="objectBoundingBox"><stop offset="0" stop-color="#ff00ff"></stop><stop offset="1" stop-color="#0069d9"></stop></linearGradient></defs><g><g transform="matrix(1.3,0,0,1.3,-139.4,124.2)"><path d="M 22.6 -65.8 L 26.2 -65.8 L 26.2 -32.8 L 26.2 -32.8 Q 26.2 -26.3 22.2 -23.4 L 22.2 -23.4 L 22.2 -23.4 Q 18.3 -20.4 12.7 -20.4 L 12.7 -20.4 L 12.7 -20.4 Q 7.2 -20.4 3.2 -23.4 L 3.2 -23.4 L 3.2 -23.4 Q -0.8 -26.3 -0.8 -32.8 L -0.8 -32.8 L -0.8 -65.8 L 2.8 -65.8 L 2.8 -32.3 L 2.8 -32.3 Q 2.8 -28.4 5.7 -26 L 5.7 -26 L 5.7 -26 Q 8.5 -23.6 12.7 -23.6 L 12.7 -23.6 L 12.7 -23.6 Q 16.8 -23.6 19.7 -26 L 19.7 -26 L 19.7 -26 Q 22.6 -28.4 22.6 -32.3 L 22.6 -32.3 L 22.6 -65.8 Z M 54.9 -20.9 L 54.9 -42.8 L 54.9 -42.8 Q 54.9 -46.8 52.6 -48.5 L 52.6 -48.5 L 52.6 -48.5 Q 50.4 -50.3 46.8 -50.3 L 46.8 -50.3 L 46.8 -50.3 Q 44.6 -50.3 42.4 -49.7 L 42.4 -49.7 L 42.4 -49.7 Q 40.1 -49.1 38.4 -48.1 L 38.4 -48.1 L 38.4 -20.9 L 34.8 -20.9 L 34.8 -53 L 38.4 -53 L 38.1 -50.8 L 38.1 -50.8 Q 39.7 -52.1 42 -52.8 L 42 -52.8 L 42 -52.8 Q 44.4 -53.5 47 -53.5 L 47 -53.5 L 47 -53.5 Q 50.5 -53.5 53 -52.3 L 53 -52.3 L 53 -52.3 Q 55.6 -51.2 57 -48.9 L 57 -48.9 L 57 -48.9 Q 58.4 -46.6 58.4 -43 L 58.4 -43 L 58.4 -20.9 L 54.9 -20.9 Z M 68.4 -29 L 68.4 -29 Q 68.8 -26.1 71.3 -24.7 L 71.3 -24.7 L 71.3 -24.7 Q 73.8 -23.3 76.9 -23.3 L 76.9 -23.3 L 76.9 -23.3 Q 79.8 -23.3 82.1 -24.6 L 82.1 -24.6 L 82.1 -24.6 Q 84.5 -25.9 84.5 -28.8 L 84.5 -28.8 L 84.5 -28.8 Q 84.5 -30.8 83.4 -32 L 83.4 -32 L 83.4 -32 Q 82.2 -33.2 80.6 -34 L 80.6 -34 L 80.6 -34 Q 78.9 -34.8 76.1 -35.7 L 76.1 -35.7 L 76.1 -35.7 Q 73 -36.7 71 -37.6 L 71 -37.6 L 71 -37.6 Q 69 -38.5 67.5 -40.1 L 67.5 -40.1 L 67.5 -40.1 Q 66 -41.8 65.8 -44.3 L 65.8 -44.3 L 65.7 -45 L 65.7 -45 Q 65.7 -47.1 66.9 -49.2 L 66.9 -49.2 L 66.9 -49.2 Q 68.1 -51.2 70.6 -52.4 L 70.6 -52.4 L 70.6 -52.4 Q 73 -53.7 76.7 -53.7 L 76.7 -53.7 L 76.7 -53.7 Q 78.8 -53.7 80.4 -53.3 L 80.4 -53.3 L 80.4 -53.3 Q 81.9 -52.9 82.8 -52.4 L 82.8 -52.4 L 82.8 -52.4 Q 83.7 -52 83.9 -51.9 L 83.9 -51.9 L 82.7 -48.9 L 82.7 -48.9 Q 82.5 -49.1 81.8 -49.4 L 81.8 -49.4 L 81.8 -49.4 Q 81 -49.8 79.7 -50.2 L 79.7 -50.2 L 79.7 -50.2 Q 78.3 -50.6 76.7 -50.6 L 76.7 -50.6 L 76.7 -50.6 Q 73.7 -50.6 71.5 -49.2 L 71.5 -49.2 L 71.5 -49.2 Q 69.3 -47.7 69.3 -45.2 L 69.3 -45.2 L 69.3 -45.2 Q 69.3 -42.7 71.3 -41.4 L 71.3 -41.4 L 71.3 -41.4 Q 73.3 -40.2 77.4 -38.9 L 77.4 -38.9 L 77.4 -38.9 Q 80.8 -37.7 83 -36.7 L 83 -36.7 L 83 -36.7 Q 85.1 -35.7 86.6 -33.8 L 86.6 -33.8 L 86.6 -33.8 Q 88.1 -31.9 88.1 -28.9 L 88.1 -28.9 L 88.1 -28.9 Q 88.1 -25.1 85.2 -22.5 L 85.2 -22.5 L 85.2 -22.5 Q 82.4 -19.9 76.9 -19.9 L 76.9 -19.9 L 76.9 -19.9 Q 73.2 -19.9 70.6 -21.2 L 70.6 -21.2 L 70.6 -21.2 Q 67.9 -22.4 66.5 -24.5 L 66.5 -24.5 L 66.5 -24.5 Q 65.2 -26.5 65 -29 L 65 -29 L 68.4 -29 Z M 95.3 -7.5 L 95.3 -53 L 98.9 -53 L 98.6 -49.7 L 98.6 -49.7 Q 100.3 -51.6 102.6 -52.5 L 102.6 -52.5 L 102.6 -52.5 Q 105 -53.5 107.3 -53.5 L 107.3 -53.5 L 107.3 -53.5 Q 113.2 -53.5 116.3 -50 L 116.3 -50 L 116.3 -50 Q 119.4 -46.6 119.4 -41.1 L 119.4 -41.1 L 119.4 -32.2 L 119.4 -32.2 Q 119.4 -26.3 116.2 -23.2 L 116.2 -23.2 L 116.2 -23.2 Q 112.9 -20.1 107.5 -20.1 L 107.5 -20.1 L 107.5 -20.1 Q 104.8 -20.1 102.7 -20.9 L 102.7 -20.9 L 102.7 -20.9 Q 100.5 -21.7 98.9 -23.6 L 98.9 -23.6 L 98.9 -8.9 L 95.3 -7.5 Z M 115.8 -41.3 L 115.8 -41.3 Q 115.8 -46 113.4 -48.1 L 113.4 -48.1 L 113.4 -48.1 Q 110.9 -50.2 107.5 -50.2 L 107.5 -50.2 L 107.5 -50.2 Q 104.1 -50.2 101.6 -48.1 L 101.6 -48.1 L 101.6 -48.1 Q 99.1 -46 98.9 -41.6 L 98.9 -41.6 L 98.9 -31.5 L 98.9 -31.5 Q 98.9 -27.4 101.3 -25.4 L 101.3 -25.4 L 101.3 -25.4 Q 103.6 -23.4 107.5 -23.4 L 107.5 -23.4 L 107.5 -23.4 Q 111 -23.4 113.4 -25.5 L 113.4 -25.5 L 113.4 -25.5 Q 115.8 -27.6 115.8 -31.5 L 115.8 -31.5 L 115.8 -41.3 Z M 126.5 -20.9 L 126.5 -65.7 L 130.1 -65.7 L 130.1 -20.9 L 126.5 -20.9 Z M 162.2 -20.9 L 162.2 -20.9 Q 155.3 -20.2 152.3 -20.2 L 152.3 -20.2 L 152.3 -20.2 Q 145.5 -20.2 141.6 -22.7 L 141.6 -22.7 L 141.6 -22.7 Q 137.6 -25.2 137.6 -31.7 L 137.6 -31.7 L 137.6 -37 L 137.6 -37 Q 137.6 -43.4 142 -45.5 L 142 -45.5 L 142 -45.5 Q 144.1 -46.6 147.4 -46.6 L 147.4 -46.6 L 147.4 -46.6 Q 150.4 -46.6 153.5 -45.6 L 153.5 -45.6 L 153.5 -45.6 Q 156.6 -44.6 158.7 -43 L 158.7 -43 L 158.7 -43 Q 158.7 -46.6 156.6 -48.6 L 156.6 -48.6 L 156.6 -48.6 Q 154.6 -50.7 148.7 -50.7 L 148.7 -50.7 L 148.9 -53.5 L 148.9 -53.5 Q 155.1 -53.5 158 -51.5 L 158 -51.5 L 158 -51.5 Q 160.9 -49.6 161.6 -46.9 L 161.6 -46.9 L 161.6 -46.9 Q 162.2 -44.2 162.2 -40 L 162.2 -40 L 162.2 -20.9 Z M 158.7 -40.3 L 158.7 -40.3 Q 156 -41.5 153.1 -42.4 L 153.1 -42.4 L 153.1 -42.4 Q 150.1 -43.3 147.6 -43.3 L 147.6 -43.3 L 147.6 -43.3 Q 141.1 -43.3 141.1 -36.8 L 141.1 -36.8 L 141.1 -31.3 L 141.1 -31.3 Q 141.1 -27.1 144 -25.2 L 144 -25.2 L 144 -25.2 Q 146.9 -23.3 152.2 -23.3 L 152.2 -23.3 L 152.2 -23.3 Q 154.9 -23.3 158.7 -23.8 L 158.7 -23.8 L 158.7 -40.3 Z M 170.2 -29 L 170.2 -29 Q 170.6 -26.1 173.1 -24.7 L 173.1 -24.7 L 173.1 -24.7 Q 175.6 -23.3 178.7 -23.3 L 178.7 -23.3 L 178.7 -23.3 Q 181.6 -23.3 183.9 -24.6 L 183.9 -24.6 L 183.9 -24.6 Q 186.3 -25.9 186.3 -28.8 L 186.3 -28.8 L 186.3 -28.8 Q 186.3 -30.8 185.2 -32 L 185.2 -32 L 185.2 -32 Q 184.1 -33.2 182.4 -34 L 182.4 -34 L 182.4 -34 Q 180.7 -34.8 177.9 -35.7 L 177.9 -35.7 L 177.9 -35.7 Q 174.8 -36.7 172.8 -37.6 L 172.8 -37.6 L 172.8 -37.6 Q 170.8 -38.5 169.3 -40.1 L 169.3 -40.1 L 169.3 -40.1 Q 167.9 -41.8 167.6 -44.3 L 167.6 -44.3 L 167.6 -45 L 167.6 -45 Q 167.6 -47.1 168.7 -49.2 L 168.7 -49.2 L 168.7 -49.2 Q 169.9 -51.2 172.4 -52.4 L 172.4 -52.4 L 172.4 -52.4 Q 174.8 -53.7 178.6 -53.7 L 178.6 -53.7 L 178.6 -53.7 Q 180.6 -53.7 182.2 -53.3 L 182.2 -53.3 L 182.2 -53.3 Q 183.8 -52.9 184.6 -52.4 L 184.6 -52.4 L 184.6 -52.4 Q 185.5 -52 185.7 -51.9 L 185.7 -51.9 L 184.5 -48.9 L 184.5 -48.9 Q 184.3 -49.1 183.6 -49.4 L 183.6 -49.4 L 183.6 -49.4 Q 182.8 -49.8 181.5 -50.2 L 181.5 -50.2 L 181.5 -50.2 Q 180.2 -50.6 178.6 -50.6 L 178.6 -50.6 L 178.6 -50.6 Q 175.5 -50.6 173.3 -49.2 L 173.3 -49.2 L 173.3 -49.2 Q 171.1 -47.7 171.1 -45.2 L 171.1 -45.2 L 171.1 -45.2 Q 171.1 -42.7 173.1 -41.4 L 173.1 -41.4 L 173.1 -41.4 Q 175.1 -40.2 179.2 -38.9 L 179.2 -38.9 L 179.2 -38.9 Q 182.7 -37.7 184.8 -36.7 L 184.8 -36.7 L 184.8 -36.7 Q 186.9 -35.7 188.4 -33.8 L 188.4 -33.8 L 188.4 -33.8 Q 189.9 -31.9 189.9 -28.9 L 189.9 -28.9 L 189.9 -28.9 Q 189.9 -25.1 187 -22.5 L 187 -22.5 L 187 -22.5 Q 184.2 -19.9 178.7 -19.9 L 178.7 -19.9 L 178.7 -19.9 Q 175 -19.9 172.4 -21.2 L 172.4 -21.2 L 172.4 -21.2 Q 169.7 -22.4 168.4 -24.5 L 168.4 -24.5 L 168.4 -24.5 Q 167 -26.5 166.8 -29 L 166.8 -29 L 170.2 -29 Z M 216.3 -20.9 L 216.3 -42.8 L 216.3 -42.8 Q 216.3 -46.8 214.1 -48.5 L 214.1 -48.5 L 214.1 -48.5 Q 211.8 -50.3 208.2 -50.3 L 208.2 -50.3 L 208.2 -50.3 Q 206 -50.3 203.8 -49.7 L 203.8 -49.7 L 203.8 -49.7 Q 201.5 -49.1 199.8 -48.1 L 199.8 -48.1 L 199.8 -20.9 L 196.2 -20.9 L 196.2 -65.7 L 199.8 -65.7 L 199.8 -51.2 L 199.8 -51.2 Q 201.4 -52.3 203.7 -52.9 L 203.7 -52.9 L 203.7 -52.9 Q 205.9 -53.5 208.3 -53.5 L 208.3 -53.5 L 208.3 -53.5 Q 211.7 -53.5 214.4 -52.3 L 214.4 -52.3 L 214.4 -52.3 Q 217 -51.2 218.4 -48.9 L 218.4 -48.9 L 218.4 -48.9 Q 219.8 -46.6 219.8 -43 L 219.8 -43 L 219.8 -20.9 L 216.3 -20.9 Z M 250 -20.9 L 250 -62.4 L 245.7 -62.6 L 245.7 -65.7 L 253.6 -65.7 L 253.6 -20.9 L 250 -20.9 Z M 299.8 -20.9 L 299.8 -42.8 L 299.8 -42.8 Q 299.8 -46.7 297.8 -48.5 L 297.8 -48.5 L 297.8 -48.5 Q 295.8 -50.3 292.6 -50.3 L 292.6 -50.3 L 292.6 -50.3 Q 290.1 -50.3 287 -49.2 L 287 -49.2 L 284.6 -48 L 284.6 -48 Q 285.7 -45.9 285.7 -43 L 285.7 -43 L 285.7 -20.9 L 282.2 -20.9 L 282.2 -42.8 L 282.2 -42.8 Q 282.2 -46.8 280.2 -48.5 L 280.2 -48.5 L 280.2 -48.5 Q 278.1 -50.3 274.9 -50.3 L 274.9 -50.3 L 274.9 -50.3 Q 272.9 -50.3 270.8 -49.7 L 270.8 -49.7 L 270.8 -49.7 Q 268.7 -49.1 266.9 -48.1 L 266.9 -48.1 L 266.9 -20.9 L 263.4 -20.9 L 263.4 -53 L 266.9 -53 L 266.6 -50.9 L 266.6 -50.9 Q 270.9 -53.4 275.3 -53.4 L 275.3 -53.4 L 275.3 -53.4 Q 277.6 -53.4 279.6 -52.6 L 279.6 -52.6 L 279.6 -52.6 Q 281.6 -51.9 283 -50.4 L 283 -50.4 L 283 -50.4 Q 283.9 -50.9 285.7 -51.8 L 285.7 -51.8 L 285.7 -51.8 Q 289.5 -53.5 293 -53.5 L 293 -53.5 L 293 -53.5 Q 297.5 -53.5 300.4 -50.8 L 300.4 -50.8 L 300.4 -50.8 Q 303.3 -48 303.3 -43 L 303.3 -43 L 303.3 -20.9 L 299.8 -20.9 Z M 332.4 -20.9 L 332.4 -20.9 Q 325.5 -20.2 322.4 -20.2 L 322.4 -20.2 L 322.4 -20.2 Q 315.7 -20.2 311.8 -22.7 L 311.8 -22.7 L 311.8 -22.7 Q 307.8 -25.2 307.8 -31.7 L 307.8 -31.7 L 307.8 -37 L 307.8 -37 Q 307.8 -43.4 312.2 -45.5 L 312.2 -45.5 L 312.2 -45.5 Q 314.3 -46.6 317.6 -46.6 L 317.6 -46.6 L 317.6 -46.6 Q 320.6 -46.6 323.6 -45.6 L 323.6 -45.6 L 323.6 -45.6 Q 326.7 -44.6 328.8 -43 L 328.8 -43 L 328.8 -43 Q 328.8 -46.6 326.8 -48.6 L 326.8 -48.6 L 326.8 -48.6 Q 324.7 -50.7 318.9 -50.7 L 318.9 -50.7 L 319.1 -53.5 L 319.1 -53.5 Q 325.3 -53.5 328.2 -51.5 L 328.2 -51.5 L 328.2 -51.5 Q 331.1 -49.6 331.8 -46.9 L 331.8 -46.9 L 331.8 -46.9 Q 332.4 -44.2 332.4 -40 L 332.4 -40 L 332.4 -20.9 Z M 328.8 -40.3 L 328.8 -40.3 Q 326.2 -41.5 323.2 -42.4 L 323.2 -42.4 L 323.2 -42.4 Q 320.3 -43.3 317.8 -43.3 L 317.8 -43.3 L 317.8 -43.3 Q 311.3 -43.3 311.3 -36.8 L 311.3 -36.8 L 311.3 -31.3 L 311.3 -31.3 Q 311.3 -27.1 314.2 -25.2 L 314.2 -25.2 L 314.2 -25.2 Q 317.1 -23.3 322.4 -23.3 L 322.4 -23.3 L 322.4 -23.3 Q 325.1 -23.3 328.8 -23.8 L 328.8 -23.8 L 328.8 -40.3 Z M 353.4 -10.2 L 353.4 -10.2 Q 357.6 -11.8 357.6 -16.9 L 357.6 -16.9 L 357.6 -24.8 L 357.6 -24.8 Q 354.9 -20.1 349 -20.1 L 349 -20.1 L 349 -20.1 Q 343.4 -20.1 340.2 -23.2 L 340.2 -23.2 L 340.2 -23.2 Q 337.1 -26.3 337.1 -32.2 L 337.1 -32.2 L 337.1 -41.7 L 337.1 -41.7 Q 337.1 -47.3 340.4 -50.4 L 340.4 -50.4 L 340.4 -50.4 Q 343.7 -53.5 349.3 -53.5 L 349.3 -53.5 L 349.3 -53.5 Q 355.2 -53.5 357.9 -49.2 L 357.9 -49.2 L 357.6 -53 L 361.2 -53 L 361.2 -16.8 L 361.2 -16.8 Q 361.2 -13 359.6 -10.8 L 359.6 -10.8 L 359.6 -10.8 Q 358 -8.6 354.4 -7.5 L 354.4 -7.5 L 353.4 -10.2 Z M 357.6 -42.4 L 357.6 -42.4 Q 357.6 -46.4 355.1 -48.3 L 355.1 -48.3 L 355.1 -48.3 Q 352.5 -50.3 349 -50.3 L 349 -50.3 L 349 -50.3 Q 345.6 -50.3 343.1 -48.2 L 343.1 -48.2 L 343.1 -48.2 Q 340.7 -46.1 340.7 -41.4 L 340.7 -41.4 L 340.7 -31.6 L 340.7 -31.6 Q 340.7 -27.6 342.9 -25.5 L 342.9 -25.5 L 342.9 -25.5 Q 345.2 -23.5 349 -23.5 L 349 -23.5 L 349 -23.5 Q 352.6 -23.5 355.1 -25.7 L 355.1 -25.7 L 355.1 -25.7 Q 357.6 -27.9 357.6 -32 L 357.6 -32 L 357.6 -42.4 Z M 387.1 -23.1 L 387.1 -23.1 Q 384.8 -21.7 381.8 -20.9 L 381.8 -20.9 L 381.8 -20.9 Q 378.9 -20.1 375.9 -20.1 L 375.9 -20.1 L 375.9 -20.1 Q 371.2 -20.1 368.4 -22.5 L 368.4 -22.5 L 368.4 -22.5 Q 365.6 -24.8 365.6 -29.5 L 365.6 -29.5 L 365.6 -42.6 L 365.6 -42.6 Q 365.6 -47.8 368.9 -50.7 L 368.9 -50.7 L 368.9 -50.7 Q 372.1 -53.5 377.4 -53.5 L 377.4 -53.5 L 377.4 -53.5 Q 382.7 -53.5 385.7 -50.7 L 385.7 -50.7 L 385.7 -50.7 Q 388.7 -47.8 388.7 -42.8 L 388.7 -42.8 L 388.7 -34.5 L 369.2 -33.4 L 369.2 -29.5 L 369.2 -29.5 Q 369.2 -26.4 371.2 -24.9 L 371.2 -24.9 L 371.2 -24.9 Q 373.2 -23.3 376.4 -23.3 L 376.4 -23.3 L 376.4 -23.3 Q 380.9 -23.3 385.7 -25.9 L 385.7 -25.9 L 387.1 -23.1 Z M 385.1 -43.2 L 385.1 -43.2 Q 385.1 -47.2 382.6 -48.8 L 382.6 -48.8 L 382.6 -48.8 Q 380.1 -50.5 377.4 -50.5 L 377.4 -50.5 L 377.4 -50.5 Q 373.8 -50.5 371.5 -48.5 L 371.5 -48.5 L 371.5 -48.5 Q 369.2 -46.6 369.2 -42.5 L 369.2 -42.5 L 369.2 -36.9 L 385.1 -37.7 L 385.1 -43.2 Z M 436.8 -20.9 L 435.9 -23.5 L 435.9 -23.5 Q 432.6 -20.3 426.6 -20.3 L 426.6 -20.3 L 426.6 -20.3 Q 423 -20.3 420 -21.6 L 420 -21.6 L 420 -21.6 Q 416.9 -22.9 415 -25.8 L 415 -25.8 L 415 -25.8 Q 413.1 -28.7 413.1 -33 L 413.1 -33 L 413.1 -53.1 L 413.1 -53.1 Q 413.1 -57.6 414.6 -60.3 L 414.6 -60.3 L 414.6 -60.3 Q 416 -63 418.7 -64.7 L 418.7 -64.7 L 418.7 -64.7 Q 421.5 -66.3 425.6 -66.3 L 425.6 -66.3 L 425.6 -66.3 Q 430.6 -66.3 434.6 -64.2 L 434.6 -64.2 L 433.6 -61.7 L 433.6 -61.7 Q 430 -63.1 426.7 -63.1 L 426.7 -63.1 L 426.7 -63.1 Q 422.8 -63.1 419.8 -61.2 L 419.8 -61.2 L 419.8 -61.2 Q 416.7 -59.2 416.7 -53.7 L 416.7 -53.7 L 416.7 -32.9 L 416.7 -32.9 Q 416.7 -28.6 419.5 -26.1 L 419.5 -26.1 L 419.5 -26.1 Q 422.3 -23.7 426.6 -23.7 L 426.6 -23.7 L 426.6 -23.7 Q 430.9 -23.7 433.5 -26.2 L 433.5 -26.2 L 433.5 -26.2 Q 436 -28.7 436 -32.8 L 436 -32.8 L 436 -36.6 L 431.8 -36.6 L 430.6 -40.1 L 439.4 -40.1 L 439.4 -20.9 L 436.8 -20.9 Z M 470.3 -20.9 L 470.3 -20.9 Q 463.4 -20.2 460.4 -20.2 L 460.4 -20.2 L 460.4 -20.2 Q 453.6 -20.2 449.7 -22.7 L 449.7 -22.7 L 449.7 -22.7 Q 445.7 -25.2 445.7 -31.7 L 445.7 -31.7 L 445.7 -37 L 445.7 -37 Q 445.7 -43.4 450.1 -45.5 L 450.1 -45.5 L 450.1 -45.5 Q 452.2 -46.6 455.5 -46.6 L 455.5 -46.6 L 455.5 -46.6 Q 458.5 -46.6 461.6 -45.6 L 461.6 -45.6 L 461.6 -45.6 Q 464.6 -44.6 466.8 -43 L 466.8 -43 L 466.8 -43 Q 466.8 -46.6 464.7 -48.6 L 464.7 -48.6 L 464.7 -48.6 Q 462.7 -50.7 456.8 -50.7 L 456.8 -50.7 L 457 -53.5 L 457 -53.5 Q 463.2 -53.5 466.1 -51.5 L 466.1 -51.5 L 466.1 -51.5 Q 469 -49.6 469.7 -46.9 L 469.7 -46.9 L 469.7 -46.9 Q 470.3 -44.2 470.3 -40 L 470.3 -40 L 470.3 -20.9 Z M 466.8 -40.3 L 466.8 -40.3 Q 464.1 -41.5 461.2 -42.4 L 461.2 -42.4 L 461.2 -42.4 Q 458.2 -43.3 455.7 -43.3 L 455.7 -43.3 L 455.7 -43.3 Q 449.2 -43.3 449.2 -36.8 L 449.2 -36.8 L 449.2 -31.3 L 449.2 -31.3 Q 449.2 -27.1 452.1 -25.2 L 452.1 -25.2 L 452.1 -25.2 Q 455 -23.3 460.3 -23.3 L 460.3 -23.3 L 460.3 -23.3 Q 463 -23.3 466.8 -23.8 L 466.8 -23.8 L 466.8 -40.3 Z M 477.6 -20.9 L 477.6 -65.7 L 481.2 -65.7 L 481.2 -20.9 L 477.6 -20.9 Z M 491.3 -20.9 L 491.3 -65.7 L 494.9 -65.7 L 494.9 -20.9 L 491.3 -20.9 Z M 523.7 -23.1 L 523.7 -23.1 Q 521.4 -21.7 518.5 -20.9 L 518.5 -20.9 L 518.5 -20.9 Q 515.5 -20.1 512.6 -20.1 L 512.6 -20.1 L 512.6 -20.1 Q 507.8 -20.1 505.1 -22.5 L 505.1 -22.5 L 505.1 -22.5 Q 502.3 -24.8 502.3 -29.5 L 502.3 -29.5 L 502.3 -42.6 L 502.3 -42.6 Q 502.3 -47.8 505.5 -50.7 L 505.5 -50.7 L 505.5 -50.7 Q 508.7 -53.5 514 -53.5 L 514 -53.5 L 514 -53.5 Q 519.4 -53.5 522.3 -50.7 L 522.3 -50.7 L 522.3 -50.7 Q 525.3 -47.8 525.3 -42.8 L 525.3 -42.8 L 525.3 -34.5 L 505.9 -33.4 L 505.9 -29.5 L 505.9 -29.5 Q 505.9 -26.4 507.8 -24.9 L 507.8 -24.9 L 507.8 -24.9 Q 509.8 -23.3 513 -23.3 L 513 -23.3 L 513 -23.3 Q 517.5 -23.3 522.3 -25.9 L 522.3 -25.9 L 523.7 -23.1 Z M 521.7 -43.2 L 521.7 -43.2 Q 521.7 -47.2 519.2 -48.8 L 519.2 -48.8 L 519.2 -48.8 Q 516.7 -50.5 514 -50.5 L 514 -50.5 L 514 -50.5 Q 510.5 -50.5 508.2 -48.5 L 508.2 -48.5 L 508.2 -48.5 Q 505.9 -46.6 505.9 -42.5 L 505.9 -42.5 L 505.9 -36.9 L 521.7 -37.7 L 521.7 -43.2 Z M 531.7 -20.9 L 531.7 -53 L 535.3 -53 L 535.1 -50.7 L 535.1 -50.7 Q 538.1 -53.5 543 -53.5 L 543 -53.5 L 543 -53.5 Q 544.7 -53.5 547.7 -53 L 547.7 -53 L 546.8 -49.7 L 546.8 -49.7 Q 544.7 -50.3 542.5 -50.3 L 542.5 -50.3 L 542.5 -50.3 Q 539.5 -50.3 537.4 -49.2 L 537.4 -49.2 L 537.4 -49.2 Q 535.3 -48.2 535.3 -46 L 535.3 -46 L 535.3 -20.9 L 531.7 -20.9 Z M 567.8 -10.2 L 567.8 -10.2 Q 572.1 -11.8 572.1 -16.9 L 572.1 -16.9 L 572.1 -24 L 572.1 -24 Q 570.9 -22 568.5 -21.1 L 568.5 -21.1 L 568.5 -21.1 Q 566 -20.1 563.2 -20.1 L 563.2 -20.1 L 563.2 -20.1 Q 557.6 -20.1 554.5 -23.2 L 554.5 -23.2 L 554.5 -23.2 Q 551.5 -26.2 551.5 -32.2 L 551.5 -32.2 L 551.5 -53 L 555 -53 L 555 -31.5 L 555 -31.5 Q 555 -27.4 557.2 -25.4 L 557.2 -25.4 L 557.2 -25.4 Q 559.4 -23.4 563.2 -23.4 L 563.2 -23.4 L 563.2 -23.4 Q 567.2 -23.4 569.6 -25.4 L 569.6 -25.4 L 569.6 -25.4 Q 572 -27.4 572 -31.5 L 572 -31.5 L 572 -44.1 L 572 -44.1 Q 572 -47.2 572.2 -48.7 L 572.2 -48.7 L 572.2 -48.7 Q 572.4 -50.2 573.4 -51.5 L 573.4 -51.5 L 573.4 -51.5 Q 574.4 -52.8 576.7 -53.5 L 576.7 -53.5 L 577.7 -51.1 L 577.7 -51.1 Q 575.5 -50.1 575.5 -46.6 L 575.5 -46.6 L 575.5 -17 L 575.5 -17 Q 575.5 -13.1 574 -10.8 L 574 -10.8 L 574 -10.8 Q 572.4 -8.6 568.8 -7.5 L 568.8 -7.5 L 567.8 -10.2 Z" fill="url(#editing-gradient-gradient)"></path></g></g><style>text {
  font-size: 64px;
  font-family: Arial Black;
  dominant-baseline: central;
  text-anchor: middle;
}</style></svg>